<svg width="18.000000" height="18.000000" viewBox="0 0 18 18" fill="none" xmlns="http://www.w3.org/2000/svg" xmlns:xlink="http://www.w3.org/1999/xlink">
	<desc>
			Created with Pixso.
	</desc>
	<defs>
		<clipPath id="clip9_1313">
			<rect id="Linear / Map &amp; Location / Map Point Wave" width="18.000000" height="18.000000" fill="white" fill-opacity="0"/>
		</clipPath>
	</defs>
	<g clip-path="url(#clip9_1313)">
		<path id="Vector" d="M8.03 13.3C5.42 12.18 3.75 9.06 3.75 6.38C3.75 3.68 6.1 1.5 9 1.5C11.89 1.5 14.25 3.68 14.25 6.38C14.25 9.06 12.57 12.18 9.96 13.3C9.35 13.56 8.64 13.56 8.03 13.3Z" stroke="#333333" stroke-opacity="1.000000" stroke-width="1.500000"/>
		<path id="Vector" d="M9 8.25C8.17 8.25 7.5 7.57 7.5 6.75C7.5 5.92 8.17 5.25 9 5.25C9.82 5.25 10.5 5.92 10.5 6.75C10.5 7.57 9.82 8.25 9 8.25Z" stroke="#333333" stroke-opacity="1.000000" stroke-width="1.500000"/>
		<path id="Vector" d="M15.72 11.62C16.21 12.07 16.5 12.58 16.5 13.12C16.5 14.98 13.14 16.5 9 16.5C4.85 16.5 1.5 14.98 1.5 13.12C1.5 12.58 1.78 12.07 2.27 11.62" stroke="#333333" stroke-opacity="1.000000" stroke-width="1.500000" stroke-linecap="round"/>
	</g>
</svg>
