<svg width="20.000000" height="20.000000" viewBox="0 0 20 20" fill="none" xmlns="http://www.w3.org/2000/svg" xmlns:xlink="http://www.w3.org/1999/xlink">
	<desc>
			Created with Pixso.
	</desc>
	<defs>
		<clipPath id="clip6_2153">
			<rect id="Frame" rx="0.000000" width="19.000000" height="19.000000" transform="translate(0.500000 0.500000)" fill="white" fill-opacity="0"/>
		</clipPath>
	</defs>
	<rect id="Frame" rx="0.000000" width="19.000000" height="19.000000" transform="translate(0.500000 0.500000)" fill="#FFFFFF" fill-opacity="0"/>
	<g clip-path="url(#clip6_2153)">
		<path id="Vector" d="M6.46 3.13C7.4 2.19 8.67 1.66 10 1.66C11.32 1.66 12.59 2.19 13.53 3.13C14.47 4.06 15 5.34 15 6.66C15 12.5 17.5 14.16 17.5 14.16L2.5 14.16C2.5 14.16 5 12.5 5 6.66C5 5.34 5.52 4.06 6.46 3.13Z" stroke="#262626" stroke-opacity="1.000000" stroke-width="2.000000" stroke-linejoin="round"/>
		<path id="Vector" d="M8.58 17.5C8.72 17.75 8.92 17.96 9.17 18.11C9.42 18.26 9.71 18.33 10 18.33C10.28 18.33 10.57 18.26 10.82 18.11C11.07 17.96 11.27 17.75 11.41 17.5" stroke="#262626" stroke-opacity="1.000000" stroke-width="2.000000" stroke-linejoin="round" stroke-linecap="round"/>
	</g>
</svg>
